<svg id="facebook" xmlns="http://www.w3.org/2000/svg" width="35" height="35" viewBox="0 0 35 35">
  <path id="Trazado_57" data-name="Trazado 57" d="M291.3,508.668q-.219.036-.44.066Q291.076,508.7,291.3,508.668Zm0,0" transform="translate(-270.973 -473.896)" fill="#c5cbd3"/>
  <path id="Trazado_58" data-name="Trazado 58" d="M299.549,507.793l-.21.037Zm0,0" transform="translate(-278.877 -473.081)" fill="#c5cbd3"/>
  <path id="Trazado_59" data-name="Trazado 59" d="M278.126,510.34q-.257.029-.516.051Q277.869,510.369,278.126,510.34Zm0,0" transform="translate(-258.633 -475.454)" fill="#c5cbd3"/>
  <path id="Trazado_60" data-name="Trazado 60" d="M286.693,509.738l-.247.031Zm0,0" transform="translate(-266.865 -474.893)" fill="#c5cbd3"/>
  <path id="Trazado_61" data-name="Trazado 61" d="M306.849,506.41l-.185.039Zm0,0" transform="translate(-285.701 -471.793)" fill="#c5cbd3"/>
  <path id="Trazado_62" data-name="Trazado 62" d="M324.634,502.113l-.149.042Zm0,0" transform="translate(-302.303 -467.791)" fill="#c5cbd3"/>
  <path id="Trazado_63" data-name="Trazado 63" d="M319.222,503.543l-.163.042Zm0,0" transform="translate(-297.249 -469.123)" fill="#c5cbd3"/>
  <path id="Trazado_64" data-name="Trazado 64" d="M312.24,505.254l-.173.039Zm0,0" transform="translate(-290.734 -470.716)" fill="#c5cbd3"/>
  <path id="Trazado_65" data-name="Trazado 65" d="M273.758,511.09l-.277.021Zm0,0" transform="translate(-254.786 -476.152)" fill="#c5cbd3"/>
  <path id="Trazado_66" data-name="Trazado 66" d="M35,17.5A17.5,17.5,0,1,0,17.5,35c.1,0,.205,0,.308,0V21.373h-3.76V16.991h3.76V13.767c0-3.739,2.283-5.775,5.619-5.775a30.95,30.95,0,0,1,3.371.172v3.908H24.5c-1.815,0-2.166.863-2.166,2.128v2.791H26.67L26.1,21.373H22.331V34.324A17.509,17.509,0,0,0,35,17.5Zm0,0" fill="#c5cbd3"/>
  <path id="Trazado_67" data-name="Trazado 67" d="M265.441,511.43q-.274.018-.55.027Q265.167,511.448,265.441,511.43Zm0,0" transform="translate(-246.784 -476.469)" fill="#c5cbd3"/>
  <path id="Trazado_68" data-name="Trazado 68" d="M260.8,511.836l-.291.007Zm0,0" transform="translate(-242.697 -476.847)" fill="#c5cbd3"/>
</svg>
