<svg id="instagram" xmlns="http://www.w3.org/2000/svg" width="35" height="35" viewBox="0 0 35 35">
  <path id="Trazado_54" data-name="Trazado 54" d="M213.718,210.359A3.359,3.359,0,1,1,210.359,207,3.359,3.359,0,0,1,213.718,210.359Zm0,0" transform="translate(-192.859 -192.859)" fill="#c5cbd3"/>
  <path id="Trazado_55" data-name="Trazado 55" d="M151.6,137.807a3.337,3.337,0,0,0-1.913-1.913,5.576,5.576,0,0,0-1.871-.347c-1.063-.048-1.382-.059-4.072-.059s-3.01.01-4.072.059a5.579,5.579,0,0,0-1.871.347,3.339,3.339,0,0,0-1.913,1.913,5.578,5.578,0,0,0-.347,1.871c-.048,1.063-.059,1.381-.059,4.072s.01,3.009.059,4.072a5.576,5.576,0,0,0,.347,1.871,3.337,3.337,0,0,0,1.913,1.913,5.568,5.568,0,0,0,1.871.347c1.063.048,1.381.059,4.072.059s3.01-.01,4.072-.059a5.568,5.568,0,0,0,1.871-.347,3.337,3.337,0,0,0,1.913-1.913,5.581,5.581,0,0,0,.347-1.871c.048-1.063.059-1.382.059-4.072s-.01-3.01-.059-4.072A5.569,5.569,0,0,0,151.6,137.807Zm-7.856,11.118a5.175,5.175,0,1,1,5.175-5.175A5.175,5.175,0,0,1,143.746,148.925Zm5.379-9.345a1.209,1.209,0,1,1,1.209-1.209A1.209,1.209,0,0,1,149.126,139.58Zm0,0" transform="translate(-126.246 -126.25)" fill="#c5cbd3"/>
  <path id="Trazado_56" data-name="Trazado 56" d="M17.5,0A17.5,17.5,0,1,0,35,17.5,17.5,17.5,0,0,0,17.5,0Zm9.988,21.643a7.373,7.373,0,0,1-.467,2.439,5.138,5.138,0,0,1-2.939,2.939,7.378,7.378,0,0,1-2.439.467c-1.072.049-1.414.061-4.143.061s-3.071-.012-4.143-.061a7.378,7.378,0,0,1-2.439-.467,5.138,5.138,0,0,1-2.939-2.939,7.371,7.371,0,0,1-.467-2.439c-.049-1.072-.061-1.414-.061-4.143s.011-3.071.061-4.143a7.373,7.373,0,0,1,.467-2.439,5.142,5.142,0,0,1,2.939-2.939,7.379,7.379,0,0,1,2.439-.467c1.072-.049,1.414-.061,4.143-.061s3.071.012,4.143.061a7.381,7.381,0,0,1,2.439.466,5.14,5.14,0,0,1,2.939,2.939,7.372,7.372,0,0,1,.467,2.439c.049,1.072.06,1.414.06,4.143S27.537,20.571,27.488,21.643Zm0,0" fill="#c5cbd3"/>
</svg>
